<mxfile host="app.diagrams.net" modified="2020-08-27T14:22:01.926Z" agent="5.0 (Windows)" etag="Fu7GFdXbLLv6zrfTsF5R" version="13.6.5" type="github">
  <diagram id="vPrAaCVRZE2s-7S_AmyK" name="Page-1">
    <mxGraphModel dx="1038" dy="547" grid="1" gridSize="10" guides="1" tooltips="1" connect="1" arrows="1" fold="1" page="1" pageScale="1" pageWidth="1169" pageHeight="827" math="0" shadow="0">
      <root>
        <mxCell id="0" />
        <mxCell id="1" parent="0" />
        <mxCell id="rSzJCblF2KPqofBRmoSj-1" value="Updating Exporters Directory" style="swimlane;html=1;childLayout=stackLayout;resizeParent=1;resizeParentMax=0;horizontal=1;startSize=20;horizontalStack=0;" vertex="1" parent="1">
          <mxGeometry x="40" y="60" width="1090" height="440" as="geometry" />
        </mxCell>
        <mxCell id="rSzJCblF2KPqofBRmoSj-2" value="Resource centre/TAS/PMDP, RIID, NB&amp;amp;COM" style="swimlane;html=1;startSize=20;horizontal=0;" vertex="1" parent="rSzJCblF2KPqofBRmoSj-1">
          <mxGeometry y="20" width="1090" height="300" as="geometry" />
        </mxCell>
        <mxCell id="rSzJCblF2KPqofBRmoSj-6" value="Start" style="rounded=1;whiteSpace=wrap;html=1;" vertex="1" parent="rSzJCblF2KPqofBRmoSj-2">
          <mxGeometry x="150" y="30" width="120" height="60" as="geometry" />
        </mxCell>
        <mxCell id="rSzJCblF2KPqofBRmoSj-27" value="End" style="rounded=1;whiteSpace=wrap;html=1;" vertex="1" parent="rSzJCblF2KPqofBRmoSj-2">
          <mxGeometry x="900" y="165" width="75" height="40" as="geometry" />
        </mxCell>
        <mxCell id="rSzJCblF2KPqofBRmoSj-9" value="Draft Directory" style="rounded=0;whiteSpace=wrap;html=1;" vertex="1" parent="rSzJCblF2KPqofBRmoSj-2">
          <mxGeometry x="150" y="150" width="120" height="70" as="geometry" />
        </mxCell>
        <mxCell id="rSzJCblF2KPqofBRmoSj-8" value="" style="edgeStyle=orthogonalEdgeStyle;rounded=0;orthogonalLoop=1;jettySize=auto;html=1;entryX=0.5;entryY=0;entryDx=0;entryDy=0;" edge="1" parent="rSzJCblF2KPqofBRmoSj-2" source="rSzJCblF2KPqofBRmoSj-6" target="rSzJCblF2KPqofBRmoSj-9">
          <mxGeometry relative="1" as="geometry">
            <mxPoint x="210" y="170" as="targetPoint" />
          </mxGeometry>
        </mxCell>
        <mxCell id="rSzJCblF2KPqofBRmoSj-14" value="TSI" style="swimlane;html=1;startSize=20;horizontal=0;" vertex="1" parent="rSzJCblF2KPqofBRmoSj-1">
          <mxGeometry y="320" width="1090" height="120" as="geometry" />
        </mxCell>
        <mxCell id="rSzJCblF2KPqofBRmoSj-26" value="TSB Databases" style="shape=parallelogram;perimeter=parallelogramPerimeter;whiteSpace=wrap;html=1;fixedSize=1;" vertex="1" parent="rSzJCblF2KPqofBRmoSj-14">
          <mxGeometry x="150" y="30" width="120" height="60" as="geometry" />
        </mxCell>
        <mxCell id="rSzJCblF2KPqofBRmoSj-19" value="" style="endArrow=classic;html=1;entryX=0.5;entryY=1;entryDx=0;entryDy=0;" edge="1" parent="rSzJCblF2KPqofBRmoSj-1" target="rSzJCblF2KPqofBRmoSj-9">
          <mxGeometry width="50" height="50" relative="1" as="geometry">
            <mxPoint x="210" y="350" as="sourcePoint" />
            <mxPoint x="510" y="410" as="targetPoint" />
          </mxGeometry>
        </mxCell>
        <mxCell id="rSzJCblF2KPqofBRmoSj-23" value="" style="edgeStyle=orthogonalEdgeStyle;rounded=0;orthogonalLoop=1;jettySize=auto;html=1;" edge="1" parent="1" source="rSzJCblF2KPqofBRmoSj-20" target="rSzJCblF2KPqofBRmoSj-22">
          <mxGeometry relative="1" as="geometry" />
        </mxCell>
        <mxCell id="rSzJCblF2KPqofBRmoSj-20" value="Clean up and confirm data" style="whiteSpace=wrap;html=1;rounded=0;" vertex="1" parent="1">
          <mxGeometry x="370" y="230" width="120" height="70" as="geometry" />
        </mxCell>
        <mxCell id="rSzJCblF2KPqofBRmoSj-21" value="" style="edgeStyle=orthogonalEdgeStyle;rounded=0;orthogonalLoop=1;jettySize=auto;html=1;" edge="1" parent="1" source="rSzJCblF2KPqofBRmoSj-9" target="rSzJCblF2KPqofBRmoSj-20">
          <mxGeometry relative="1" as="geometry" />
        </mxCell>
        <mxCell id="rSzJCblF2KPqofBRmoSj-25" value="" style="edgeStyle=orthogonalEdgeStyle;rounded=0;orthogonalLoop=1;jettySize=auto;html=1;" edge="1" parent="1" source="rSzJCblF2KPqofBRmoSj-22" target="rSzJCblF2KPqofBRmoSj-24">
          <mxGeometry relative="1" as="geometry" />
        </mxCell>
        <mxCell id="rSzJCblF2KPqofBRmoSj-22" value="Segregate data into counties/sectors, products, mode of identification, verification date" style="whiteSpace=wrap;html=1;rounded=0;" vertex="1" parent="1">
          <mxGeometry x="560" y="230" width="130" height="70" as="geometry" />
        </mxCell>
        <mxCell id="rSzJCblF2KPqofBRmoSj-29" value="" style="edgeStyle=orthogonalEdgeStyle;rounded=0;orthogonalLoop=1;jettySize=auto;html=1;" edge="1" parent="1" source="rSzJCblF2KPqofBRmoSj-24">
          <mxGeometry relative="1" as="geometry">
            <mxPoint x="940" y="265" as="targetPoint" />
          </mxGeometry>
        </mxCell>
        <mxCell id="rSzJCblF2KPqofBRmoSj-24" value="Input into the exporters directory" style="whiteSpace=wrap;html=1;rounded=0;" vertex="1" parent="1">
          <mxGeometry x="775" y="235" width="120" height="60" as="geometry" />
        </mxCell>
      </root>
    </mxGraphModel>
  </diagram>
</mxfile>
